<?xml version="1.0" encoding="UTF-8"?>
<svg version="1.1" xmlns="http://www.w3.org/2000/svg" width="241" height="296">
    <path d="M0 0 C2.09375 0.91796875 2.09375 0.91796875 4.09375 2.91796875 C4.345599 4.81261462 4.345599 4.81261462 4.34822559 7.17379284 C4.35405779 8.0721741 4.35988998 8.97055537 4.36589891 9.8961603 C4.36211958 10.88942444 4.35834026 11.88268858 4.35444641 12.90605164 C4.35827196 13.95637803 4.36209751 15.00670443 4.36603898 16.0888589 C4.37641249 19.63179898 4.37236854 23.1745783 4.3684082 26.7175293 C4.37275237 29.24830781 4.37793452 31.77908501 4.38389587 34.30986023 C4.39593387 40.4855683 4.39843298 46.66121646 4.39609561 52.83693399 C4.3943147 57.85733138 4.39605721 62.87771554 4.40032005 67.89811134 C4.40091524 68.6118625 4.40151043 69.32561366 4.40212366 70.06099365 C4.40333538 71.51089646 4.40454952 72.96079928 4.40576603 74.41070209 C4.41665307 88.02145715 4.41447409 101.63218746 4.40838119 115.24294392 C4.40321587 127.69264904 4.41445518 140.14227583 4.43347941 152.59196546 C4.45285782 165.37138024 4.46111349 178.15075796 4.45735615 190.93018752 C4.45544348 198.10629814 4.45793767 205.28234214 4.47207069 212.45844078 C4.48523154 219.20942821 4.48272427 225.96023366 4.46965981 232.71122932 C4.46728969 235.19001696 4.4700442 237.66881556 4.47828293 240.14759064 C4.48871535 243.5302325 4.4806772 246.91234497 4.4679718 250.29496765 C4.47534609 251.27707818 4.48272037 252.25918871 4.49031812 253.27106017 C4.43968464 259.67473619 3.80937506 264.91138386 -0.65625 269.85546875 C-4.12485775 271.49342241 -6.06447892 271.46679319 -9.90625 270.91796875 C-11.59986466 270.10849614 -13.26042067 269.22840777 -14.89453125 268.3046875 C-15.86672607 267.75997803 -16.8389209 267.21526855 -17.84057617 266.65405273 C-18.85224854 266.08114502 -19.8639209 265.5082373 -20.90625 264.91796875 C-22.88754659 263.81815564 -24.8693209 262.71920271 -26.8515625 261.62109375 C-36.73058728 256.10845375 -46.59276923 250.57828132 -56.32299805 244.80639648 C-62.6346017 241.06449036 -68.98617266 237.39364204 -75.34375 233.73046875 C-77.00458618 232.77346069 -77.00458618 232.77346069 -78.69897461 231.79711914 C-80.96962068 230.48907398 -83.24037358 229.18121427 -85.51123047 227.87353516 C-88.82204285 225.96647294 -92.13194261 224.05783919 -95.44140625 222.1484375 C-96.51068359 221.53162109 -97.57996094 220.91480469 -98.68164062 220.27929688 C-100.8228525 219.04333387 -102.96348268 217.80636255 -105.10351562 216.56835938 C-110.18126428 213.63283416 -115.26472202 210.70889418 -120.3711853 207.82363892 C-122.78387 206.45952736 -125.19296574 205.08914678 -127.60180664 203.71826172 C-129.30463766 202.75264794 -131.01261867 201.79613395 -132.72070312 200.83984375 C-134.26467773 199.96005859 -134.26467773 199.96005859 -135.83984375 199.0625 C-137.2019397 198.29450073 -137.2019397 198.29450073 -138.59155273 197.51098633 C-141.06952824 195.80559764 -142.32420813 194.46492869 -143.90625 191.91796875 C-144.2804718 189.51425171 -144.2804718 189.51425171 -144.27856445 186.81396484 C-144.28479324 185.799664 -144.29102203 184.78536316 -144.29743958 183.74032593 C-144.28822983 182.65168243 -144.27902008 181.56303894 -144.26953125 180.44140625 C-144.27002975 179.3198111 -144.27052826 178.19821594 -144.27104187 177.04263306 C-144.26870268 174.67391181 -144.25898337 172.30518801 -144.24243164 169.93652344 C-144.21879509 166.29990577 -144.22187756 162.66401892 -144.22851562 159.02734375 C-144.22294043 156.72786019 -144.21583155 154.42837973 -144.20703125 152.12890625 C-144.20794266 151.03621429 -144.20885406 149.94352234 -144.20979309 148.81771851 C-144.20026108 147.80972198 -144.19072906 146.80172546 -144.1809082 145.76318359 C-144.17630081 144.87368011 -144.17169342 143.98417664 -144.16694641 143.06771851 C-143.90625 140.91796875 -143.90625 140.91796875 -141.90625 138.91796875 C-137.49169817 139.23254947 -134.3641181 140.5088695 -130.58203125 142.734375 C-129.06029297 143.62092773 -129.06029297 143.62092773 -127.5078125 144.52539062 C-126.42242187 145.17056641 -125.33703125 145.81574219 -124.21875 146.48046875 C-123.06425695 147.15767708 -121.90929948 147.83409424 -120.75390625 148.50976562 C-117.13043007 150.6330872 -113.51790998 152.77463084 -109.90625 154.91796875 C-108.7723584 155.58940918 -107.6384668 156.26084961 -106.47021484 156.95263672 C-101.99615788 159.60227051 -97.52314024 162.25361022 -93.05419922 164.91186523 C-83.96684679 170.3118928 -74.82573811 175.61212263 -65.65625 180.87109375 C-64.15384766 181.73347656 -64.15384766 181.73347656 -62.62109375 182.61328125 C-61.75605225 183.10844238 -60.89101074 183.60360352 -59.99975586 184.11376953 C-57.22445739 185.73238335 -54.46700541 187.37641274 -51.71290588 189.0307312 C-50.81269494 189.57132612 -49.912484 190.11192104 -48.98499393 190.66889763 C-47.95601569 191.28718783 -47.95601569 191.28718783 -46.90625 191.91796875 C-46.90386165 191.07736562 -46.90147329 190.23676249 -46.89901257 189.37068653 C-46.83989336 168.9231072 -46.76436304 148.47564603 -46.67053509 128.02819538 C-46.62555703 118.13998289 -46.586147 108.25180657 -46.55981445 98.36352539 C-46.53685066 89.74555391 -46.50347077 81.12769673 -46.45754844 72.50981587 C-46.43359437 67.94611007 -46.41487992 63.38251763 -46.40863609 58.81875038 C-46.4025951 54.52348241 -46.38263107 50.22850454 -46.35197449 45.93334389 C-46.34317842 44.35677097 -46.33947493 42.78016016 -46.34124184 41.20356369 C-46.342893 39.05047845 -46.32621023 36.89827927 -46.30497742 34.74531555 C-46.30036845 33.54053212 -46.29575949 32.33574869 -46.29101086 31.09445667 C-45.86811539 27.60313911 -44.9792104 25.7286582 -42.90625 22.91796875 C-40.93945312 21.42333984 -40.93945312 21.42333984 -38.6875 20.19140625 C-37.84638672 19.72178467 -37.00527344 19.25216309 -36.13867188 18.76831055 C-35.23697266 18.28144775 -34.33527344 17.79458496 -33.40625 17.29296875 C-31.50973289 16.24602936 -29.61391504 15.19782242 -27.71875 14.1484375 C-26.75453125 13.61782715 -25.7903125 13.0872168 -24.796875 12.54052734 C-21.98691298 10.9632463 -19.22424648 9.32656832 -16.46875 7.65625 C-15.18967773 6.88692139 -15.18967773 6.88692139 -13.88476562 6.10205078 C-12.26256265 5.12252909 -10.64636799 4.13296998 -9.03710938 3.13232422 C-3.6174473 -0.10210537 -3.6174473 -0.10210537 0 0 Z " fill="#591BDF" transform="translate(236.90625,25.08203125)"/>
    <path d="M0 0 C2.77972954 1.1128027 5.30082636 2.60366049 7.875 4.125 C9.04023193 4.79281494 9.04023193 4.79281494 10.22900391 5.47412109 C12.82763587 6.96888233 15.41420565 8.48315121 18 10 C19.8434779 11.07338413 21.68723476 12.14628926 23.53125 13.21875 C26.49408113 14.94430807 29.45550473 16.67215296 32.4140625 18.4050293 C40.20512081 22.96750917 48.03142121 27.46614068 55.875 31.9375 C68.17714205 38.95229078 80.45038602 46.01596142 92.71191406 53.1015625 C96.15797456 55.09120955 99.6060701 57.07728998 103.0546875 59.0625 C104.2290191 59.73882453 105.40333565 60.41517519 106.57763672 61.09155273 C108.7846143 62.36255644 110.99194476 63.63294771 113.19970703 64.90258789 C116.13704842 66.59507394 119.0688922 68.29674779 122 70 C122.95648438 70.54769043 123.91296875 71.09538086 124.8984375 71.65966797 C125.79820312 72.18318848 126.69796875 72.70670898 127.625 73.24609375 C128.42164063 73.70556396 129.21828125 74.16503418 130.0390625 74.63842773 C132 76 132 76 134 79 C134.25396729 81.28346252 134.25396729 81.28346252 134.25878906 83.99047852 C134.26509338 85.00485489 134.27139771 86.01923126 134.27789307 87.06434631 C134.27182037 88.70505348 134.27182037 88.70505348 134.265625 90.37890625 C134.26753845 91.50191635 134.2694519 92.62492645 134.27142334 93.78196716 C134.27278487 96.15664901 134.26909069 98.5313383 134.26074219 100.90600586 C134.2500325 104.55143853 134.26064397 108.19637948 134.2734375 111.84179688 C134.2721161 114.14583443 134.2695541 116.44987167 134.265625 118.75390625 C134.26967346 119.84973526 134.27372192 120.94556427 134.27789307 122.07460022 C134.26843658 123.59143654 134.26843658 123.59143654 134.25878906 125.13891602 C134.25719788 126.0314357 134.25560669 126.92395538 134.25396729 127.84352112 C134 130 134 130 132 132 C127.64402244 132.59312862 125.19554667 131.27658224 121.51953125 129.02734375 C120.45130127 128.38265137 119.38307129 127.73795898 118.2824707 127.07373047 C117.71791168 126.72614685 117.15335266 126.37856323 116.57168579 126.02044678 C114.16971417 124.54180397 111.75343653 123.08730127 109.33781433 121.63110352 C108.08463902 120.87533724 106.83221502 120.11832387 105.58052063 119.36010742 C99.37740667 115.6061764 93.10240975 111.98137406 86.8125 108.375 C77.33300525 102.92675035 67.87578013 97.4422694 58.44067383 91.91748047 C53.19107417 88.84721608 47.9255036 85.80687791 42.64355469 82.79272461 C42.00155121 82.4261248 41.35954773 82.05952499 40.6980896 81.6818161 C39.13217394 80.78767735 37.56610313 79.89381034 36 79 C36.00184359 79.84667866 36.00368717 80.69335732 36.00558662 81.5656929 C36.04972993 102.15469786 36.08283916 122.74369467 36.10362434 143.33273697 C36.11394272 153.28938749 36.12801378 163.24600645 36.15087891 173.20263672 C36.17079559 181.87949416 36.18371235 190.55632875 36.18817699 199.23320842 C36.19078729 203.82875189 36.19693429 208.42422996 36.21146011 213.0197525 C36.22501682 217.34363644 36.22922651 221.66742793 36.22621536 225.9913311 C36.22676638 227.57963755 36.23075521 229.16794703 36.23841095 230.75623512 C36.24834238 232.92258551 36.2459756 235.08858557 36.24050903 237.25494385 C36.24235262 238.46802341 36.24419621 239.68110298 36.24609566 240.93094254 C36.00766461 243.90441474 35.64689229 245.5470149 34 248 C31.73193359 249.59643555 31.73193359 249.59643555 28.8984375 251.13671875 C27.33766479 251.99704712 27.33766479 251.99704712 25.74536133 252.87475586 C24.63314209 253.47296143 23.52092285 254.07116699 22.375 254.6875 C20.09468497 255.93161904 17.81473713 257.17641132 15.53515625 258.421875 C14.41898926 259.02837891 13.30282227 259.63488281 12.15283203 260.25976562 C9.40225006 261.77797441 6.69223869 263.34091641 3.99609375 264.953125 C3.27695801 265.37891846 2.55782227 265.80471191 1.81689453 266.2434082 C0.52003477 267.01599542 -0.76995076 267.8002919 -2.05126953 268.59838867 C-5.06877874 270.37023421 -6.82786355 271.00779712 -10.36328125 270.84765625 C-11.66845703 270.42806641 -11.66845703 270.42806641 -13 270 C-14.33312132 267.33375737 -14.12591538 265.31405009 -14.12698364 262.32695007 C-14.12980756 261.11568829 -14.13263147 259.9044265 -14.13554096 258.65645981 C-14.133596 257.30311823 -14.1315434 255.94977681 -14.12939453 254.59643555 C-14.13071574 253.1719623 -14.1324594 251.74748939 -14.13459301 250.32301712 C-14.13909917 246.41682897 -14.13721615 242.51066626 -14.13416123 238.60447764 C-14.13235148 235.29319165 -14.13417947 231.98191187 -14.13606292 228.67062622 C-14.14212607 217.93603797 -14.13622337 207.20147139 -14.12725878 196.46688652 C-14.12500875 193.69826646 -14.12303647 190.92964633 -14.12115097 188.161026 C-14.10596709 166.17488846 -14.07631429 144.18880233 -14.03044605 122.20270729 C-14.01361467 114.12319726 -13.99769086 106.04369483 -13.98822021 97.96417236 C-13.97045176 83.0340621 -13.93318045 68.10436162 -13.84539795 53.17446899 C-13.8210272 48.90243166 -13.80807804 44.63059465 -13.80499268 40.35848999 C-13.80086504 35.43895438 -13.77359527 30.52013716 -13.72669411 25.60082817 C-13.71380584 23.84487479 -13.70921296 22.08883653 -13.71381187 20.33284187 C-13.71865334 17.98243127 -13.69312883 15.63430643 -13.65942383 13.28417969 C-13.65276199 11.98663757 -13.64610016 10.68909546 -13.63923645 9.35223389 C-12.83618898 5.14095506 -11.27561898 3.67147174 -8 1 C-5.10376161 -0.44811919 -3.23668724 -0.30789832 0 0 Z " fill="#7C0DEE" transform="translate(14,0)"/>
</svg>
